<svg width="32" height="32" viewBox="0 0 32 32" fill="none" xmlns="http://www.w3.org/2000/svg">
<g clip-path="url(#clip0_216_5946)">
<path d="M25.312 0H6.688C2.9942 0 0 2.9942 0 6.688V25.312C0 29.0058 2.9942 32 6.688 32H25.312C29.0058 32 32 29.0058 32 25.312V6.688C32 2.9942 29.0058 0 25.312 0Z" fill="url(#paint0_linear_216_5946)"/>
<path d="M0 21.71V25.3122C0 29.006 2.9942 32.0002 6.688 32.0002H25.312C29.0058 32.0002 32 29.006 32 25.3122V21.71H0Z" fill="url(#paint1_linear_216_5946)"/>
<path d="M24.0704 2.13379H7.92957C4.72825 2.13379 2.1333 4.72874 2.1333 7.93006V24.0709C2.1333 27.2722 4.72825 29.8671 7.92957 29.8671H24.0704C27.2717 29.8671 29.8666 27.2722 29.8666 24.0709V7.93006C29.8666 4.72874 27.2717 2.13379 24.0704 2.13379Z" fill="url(#paint2_linear_216_5946)"/>
<path d="M2.22968 6.87305C2.16656 7.21576 2.1333 7.56883 2.1333 7.9298V24.0706C2.1333 27.2719 4.72825 29.8669 7.92957 29.8669H24.0704C24.4313 29.8669 24.7844 29.8336 25.1271 29.7704L2.22968 6.87305Z" fill="url(#paint3_linear_216_5946)"/>
<path d="M7.92964 29.8665H24.0704C27.2718 29.8665 29.8667 27.2715 29.8667 24.0702V7.9294C29.8667 7.42235 29.8014 6.93062 29.6791 6.46191L6.46216 29.6789C6.93086 29.8011 7.4226 29.8665 7.92964 29.8665Z" fill="url(#paint4_linear_216_5946)"/>
<path d="M29.8667 24.0708V17.4983L22.4749 10.1065C20.8767 8.38688 18.5956 7.31055 16.0628 7.31055C11.2289 7.31055 7.3103 11.2292 7.3103 16.063C7.3103 18.5958 8.38657 20.8769 10.1062 22.4751L17.498 29.867H24.0705C27.2718 29.867 29.8667 27.2721 29.8667 24.0708Z" fill="url(#paint5_linear_216_5946)"/>
<path d="M2.1333 21.624V24.0706C2.1333 27.2719 4.72825 29.8668 7.92957 29.8668H24.0704C27.2717 29.8668 29.8666 27.2719 29.8666 24.0706V21.624H2.1333Z" fill="url(#paint6_linear_216_5946)"/>
<path d="M12.6431 15.8436L26.0174 2.46929C25.4088 2.25231 24.7534 2.13379 24.0703 2.13379H7.92954C5.49723 2.13379 3.41528 3.63202 2.5553 5.75581L12.6431 15.8436Z" fill="url(#paint7_linear_216_5946)"/>
<path d="M29.8666 17.7233L22.5981 24.9919L2.8122 5.20605C2.37907 6.0181 2.1333 6.94516 2.1333 7.92976V8.07834L23.9218 29.8668H24.0704C25.055 29.8668 25.982 29.6211 26.7941 29.1879L24.3736 26.7675L29.8666 21.2745V17.7233Z" fill="url(#paint8_linear_216_5946)"/>
<path d="M24.4001 2.14258L2.14282 24.3999C2.30772 27.3385 4.66116 29.6919 7.59976 29.8568L29.8571 7.59952C29.6922 4.66092 27.3387 2.30747 24.4001 2.14258Z" fill="url(#paint9_linear_216_5946)"/>
<path d="M22.4748 10.1061C21.4792 9.03475 20.2184 8.21329 18.7969 7.74609L7.74609 18.7969C8.21336 20.2184 9.03475 21.4791 10.1061 22.4748L12.5441 24.9127L24.9128 12.544L22.4748 10.1061Z" fill="url(#paint10_linear_216_5946)"/>
<path d="M29.8574 7.59952L22.8732 14.5837C22.0004 12.0249 19.975 9.99952 17.4163 9.12674L24.4004 2.14258C27.3388 2.3076 29.6923 4.66117 29.8574 7.59952Z" fill="url(#paint11_linear_216_5946)"/>
<path d="M22.475 10.1061C21.4793 9.03475 20.2185 8.21329 18.797 7.74609L17.4163 9.12686C19.975 9.99965 22.0004 12.0251 22.8732 14.5838L24.9129 12.5441L22.475 10.1061Z" fill="url(#paint12_linear_216_5946)"/>
<path d="M16.0001 24.7521C20.8339 24.7521 24.7526 20.8334 24.7526 15.9996C24.7526 11.1657 20.8339 7.24707 16.0001 7.24707C11.1662 7.24707 7.24756 11.1657 7.24756 15.9996C7.24756 20.8334 11.1662 24.7521 16.0001 24.7521Z" fill="url(#paint13_linear_216_5946)"/>
<path d="M7.25 16.1885C7.35052 20.9351 11.2294 24.7521 16.0001 24.7521C20.7709 24.7521 24.6497 20.9351 24.7502 16.1885H7.25Z" fill="url(#paint14_linear_216_5946)"/>
<path d="M18.3547 10.7307L11.3554 12.6062C9.50974 13.1007 8.89157 15.4079 10.2427 16.759L18.0051 24.5214C21.8726 23.6148 24.7525 20.1438 24.7525 15.9999C24.7525 15.7879 24.7446 15.5776 24.7297 15.3693L20.9177 11.5573C20.3344 10.8471 19.3687 10.459 18.3547 10.7307Z" fill="url(#paint15_linear_216_5946)"/>
<path d="M18.2919 10.6673L11.2927 12.5428C9.44699 13.0374 8.82883 15.3445 10.18 16.6956L15.3037 21.8193C16.6548 23.1704 18.9619 22.5522 19.4565 20.7066L21.332 13.7074C21.8266 11.8617 20.1376 10.1727 18.2919 10.6673Z" fill="url(#paint16_linear_216_5946)"/>
<path d="M18.2919 10.6673L11.2927 12.5428C9.44699 13.0374 8.82883 15.3445 10.18 16.6956L15.3037 21.8193C16.6548 23.1704 18.9619 22.5522 19.4565 20.7066L21.332 13.7074C21.8266 11.8617 20.1376 10.1727 18.2919 10.6673Z" fill="url(#paint17_linear_216_5946)"/>
<path d="M24.3736 26.7676L29.5171 21.624H25.966L22.598 24.9919L19.2301 21.624H15.679L23.9218 29.8669H24.0704C25.055 29.8669 25.982 29.6211 26.7941 29.188L24.3736 26.7676Z" fill="url(#paint18_linear_216_5946)"/>
<path d="M7.59976 29.8573L15.833 21.624H4.91917L2.14282 24.4004C2.30765 27.339 4.66116 29.6925 7.59976 29.8573Z" fill="url(#paint19_linear_216_5946)"/>
</g>
<defs>
<linearGradient id="paint0_linear_216_5946" x1="1.2549" y1="1.2549" x2="27.3677" y2="27.3677" gradientUnits="userSpaceOnUse">
<stop stop-color="#EEF4FF"/>
<stop offset="1" stop-color="#CFE7FD"/>
</linearGradient>
<linearGradient id="paint1_linear_216_5946" x1="16" y1="25.6629" x2="16" y2="31.8902" gradientUnits="userSpaceOnUse">
<stop stop-color="#8AAADC" stop-opacity="0"/>
<stop offset="1" stop-color="#8AAADC"/>
</linearGradient>
<linearGradient id="paint2_linear_216_5946" x1="3.22086" y1="3.22135" x2="25.852" y2="25.8525" gradientUnits="userSpaceOnUse">
<stop stop-color="#BCE097"/>
<stop offset="1" stop-color="#7DC03A"/>
</linearGradient>
<linearGradient id="paint3_linear_216_5946" x1="8.56467" y1="23.4355" x2="14.07" y2="17.9302" gradientUnits="userSpaceOnUse">
<stop stop-color="#8CC951" stop-opacity="0"/>
<stop offset="1" stop-color="#3E6E66"/>
</linearGradient>
<linearGradient id="paint4_linear_216_5946" x1="23.6236" y1="23.6233" x2="18.3633" y2="18.363" gradientUnits="userSpaceOnUse">
<stop stop-color="#8CC951" stop-opacity="0"/>
<stop offset="1" stop-color="#3E6E66"/>
</linearGradient>
<linearGradient id="paint5_linear_216_5946" x1="29.0824" y1="29.0827" x2="15.1623" y2="15.1626" gradientUnits="userSpaceOnUse">
<stop stop-color="#8CC951" stop-opacity="0"/>
<stop offset="1" stop-color="#3E6E66"/>
</linearGradient>
<linearGradient id="paint6_linear_216_5946" x1="16" y1="25.3749" x2="16" y2="29.9091" gradientUnits="userSpaceOnUse">
<stop stop-color="#8CC951" stop-opacity="0"/>
<stop offset="1" stop-color="#3E6E66"/>
</linearGradient>
<linearGradient id="paint7_linear_216_5946" x1="11.6126" y1="1.43882" x2="16.7686" y2="6.59478" gradientUnits="userSpaceOnUse">
<stop stop-color="#5A5A5A"/>
<stop offset="1" stop-color="#464646"/>
</linearGradient>
<linearGradient id="paint8_linear_216_5946" x1="13.7093" y1="17.5364" x2="28.173" y2="17.5364" gradientUnits="userSpaceOnUse">
<stop stop-color="#F7E07D"/>
<stop offset="1" stop-color="#E69642"/>
</linearGradient>
<linearGradient id="paint9_linear_216_5946" x1="15.2786" y1="15.2784" x2="22.165" y2="22.1647" gradientUnits="userSpaceOnUse">
<stop stop-color="#EEF4FF"/>
<stop offset="1" stop-color="#CFE7FD"/>
</linearGradient>
<linearGradient id="paint10_linear_216_5946" x1="22.5463" y1="22.5463" x2="14.9199" y2="14.9199" gradientUnits="userSpaceOnUse">
<stop stop-color="#8AAADC" stop-opacity="0"/>
<stop offset="1" stop-color="#8AAADC"/>
</linearGradient>
<linearGradient id="paint11_linear_216_5946" x1="21.3333" y1="5.01963" x2="26.7425" y2="10.4288" gradientUnits="userSpaceOnUse">
<stop stop-color="#DC4955"/>
<stop offset="1" stop-color="#C4237C"/>
</linearGradient>
<linearGradient id="paint12_linear_216_5946" x1="26.5627" y1="16.2295" x2="22.8625" y2="12.5292" gradientUnits="userSpaceOnUse">
<stop stop-color="#8A1958" stop-opacity="0"/>
<stop offset="1" stop-color="#8A1958"/>
</linearGradient>
<linearGradient id="paint13_linear_216_5946" x1="10.118" y1="10.1175" x2="21.9135" y2="21.913" gradientUnits="userSpaceOnUse">
<stop stop-color="#76CCF8"/>
<stop offset="0.833" stop-color="#518EF8"/>
<stop offset="1" stop-color="#4981F8"/>
</linearGradient>
<linearGradient id="paint14_linear_216_5946" x1="16.0001" y1="18.463" x2="16.0001" y2="24.4959" gradientUnits="userSpaceOnUse">
<stop stop-color="#4071F7" stop-opacity="0"/>
<stop offset="1" stop-color="#30569F"/>
</linearGradient>
<linearGradient id="paint15_linear_216_5946" x1="23.4206" y1="20.1986" x2="18.2441" y2="17.2496" gradientUnits="userSpaceOnUse">
<stop stop-color="#4071F7" stop-opacity="0"/>
<stop offset="0.2283" stop-color="#3B69DB" stop-opacity="0.228"/>
<stop offset="0.5504" stop-color="#355EBA" stop-opacity="0.55"/>
<stop offset="0.8193" stop-color="#3158A6" stop-opacity="0.819"/>
<stop offset="1" stop-color="#30569F"/>
</linearGradient>
<linearGradient id="paint16_linear_216_5946" x1="12.4777" y1="16.564" x2="20.0388" y2="16.5641" gradientUnits="userSpaceOnUse">
<stop stop-color="#EEF4FF"/>
<stop offset="1" stop-color="#CFE7FD"/>
</linearGradient>
<linearGradient id="paint17_linear_216_5946" x1="18.097" y1="16.5956" x2="20.3037" y2="17.2517" gradientUnits="userSpaceOnUse">
<stop stop-color="#8AAADC" stop-opacity="0"/>
<stop offset="1" stop-color="#8AAADC"/>
</linearGradient>
<linearGradient id="paint18_linear_216_5946" x1="22.598" y1="26.2904" x2="22.598" y2="30.8422" gradientUnits="userSpaceOnUse">
<stop stop-color="#D52C1C" stop-opacity="0"/>
<stop offset="0.2813" stop-color="#CC2C20" stop-opacity="0.281"/>
<stop offset="0.7301" stop-color="#B52B2A" stop-opacity="0.73"/>
<stop offset="1" stop-color="#A42B31"/>
</linearGradient>
<linearGradient id="paint19_linear_216_5946" x1="8.98794" y1="26.6355" x2="8.98794" y2="29.8453" gradientUnits="userSpaceOnUse">
<stop stop-color="#8AAADC" stop-opacity="0"/>
<stop offset="1" stop-color="#8AAADC"/>
</linearGradient>
<clipPath id="clip0_216_5946">
<rect width="32" height="32" fill="white"/>
</clipPath>
</defs>
</svg>
