<svg width="32" height="32" viewBox="0 0 32 32" fill="none" xmlns="http://www.w3.org/2000/svg">
<g clip-path="url(#clip0_216_5921)">
<path d="M22.3245 30.6519H1.63802C0.733365 30.6519 0 29.9185 0 29.0138V2.4158C0 1.82644 0.477804 1.34863 1.06717 1.34863H25.6749C26.2643 1.34863 26.7421 1.82644 26.7421 2.4158V26.2342C26.7421 28.674 24.7642 30.6519 22.3245 30.6519Z" fill="url(#paint0_linear_216_5921)"/>
<path d="M26.7421 9.18066L14.8079 21.1149L24.011 30.318C25.6139 29.6553 26.7421 28.0769 26.7421 26.2345V9.18066Z" fill="url(#paint1_linear_216_5921)"/>
<path d="M0 4.73828H26.7421V12.3304H0V4.73828Z" fill="url(#paint2_linear_216_5921)"/>
<path d="M21.9438 12.9529H3.67942C3.45849 12.9529 3.27942 12.7738 3.27942 12.5529V12.0074C3.27942 11.7865 3.45849 11.6074 3.67942 11.6074H21.9439C22.1648 11.6074 22.3439 11.7865 22.3439 12.0074V12.5529C22.3439 12.7738 22.1648 12.9529 21.9438 12.9529Z" fill="url(#paint3_linear_216_5921)"/>
<path d="M21.9438 15.8347H3.67942C3.45849 15.8347 3.27942 15.6556 3.27942 15.4347V14.8893C3.27942 14.6683 3.45849 14.4893 3.67942 14.4893H21.9439C22.1648 14.4893 22.3439 14.6683 22.3439 14.8893V15.4347C22.3439 15.6556 22.1648 15.8347 21.9438 15.8347Z" fill="url(#paint4_linear_216_5921)"/>
<path d="M13.3019 18.7165H3.67942C3.45849 18.7165 3.27942 18.5375 3.27942 18.3165V17.7711C3.27942 17.5502 3.45849 17.3711 3.67942 17.3711H13.3019C13.5229 17.3711 13.7019 17.5502 13.7019 17.7711V18.3165C13.7019 18.5374 13.5229 18.7165 13.3019 18.7165Z" fill="url(#paint5_linear_216_5921)"/>
<path d="M0 23.041V29.0139C0 29.9186 0.733365 30.6519 1.63802 30.6519H22.3245C24.7642 30.6519 26.7421 28.6741 26.7421 26.2343V23.041H0Z" fill="url(#paint6_linear_216_5921)"/>
<path d="M3.27596 25.449V29.0141C3.27596 29.9187 2.5426 30.6521 1.63794 30.6521H25.6004C28.0402 30.6521 30.018 28.6742 30.018 26.2344V25.449C30.018 24.8596 29.5402 24.3818 28.9509 24.3818H4.34319C3.75377 24.3818 3.27596 24.8596 3.27596 25.449Z" fill="url(#paint7_linear_216_5921)"/>
<path d="M3.27596 25.449V29.0141C3.27596 29.9187 2.5426 30.6521 1.63794 30.6521H25.6004C28.0402 30.6521 30.018 28.6742 30.018 26.2344V25.449C30.018 24.8596 29.5402 24.3818 28.9509 24.3818H4.34319C3.75377 24.3818 3.27596 24.8596 3.27596 25.449Z" fill="url(#paint8_linear_216_5921)"/>
<path d="M25.6749 1.34863H1.06717C0.477804 1.34863 0 1.82644 0 2.4158V8.00087H26.7421V2.4158C26.7421 1.82644 26.2643 1.34863 25.6749 1.34863Z" fill="url(#paint9_linear_216_5921)"/>
<path d="M31.6782 4.46449L31.4564 4.24269C31.0273 3.81364 30.3317 3.81364 29.9026 4.24269L26.5977 7.5476L28.3732 9.32316L31.6781 6.01825C32.1073 5.5892 32.1073 4.89354 31.6782 4.46449Z" fill="url(#paint10_linear_216_5921)"/>
<path d="M27.4855 8.43501L28.3733 9.32279L31.0368 6.65926L30.149 5.77148L27.4855 8.43501Z" fill="url(#paint11_linear_216_5921)"/>
<path d="M16.2488 21.0355L15.4771 21.2505C14.909 21.4087 14.5123 21.012 14.6705 20.444L14.8855 19.6722C15.2452 18.3808 16.0097 17.1101 17.0574 16.0624L17.4512 15.6686L27.3813 6.24042C27.7126 5.90913 28.1752 5.83446 28.4144 6.07365L29.7846 7.50662C30.0238 7.74581 29.9491 8.20836 29.6178 8.53966L20.2522 18.47L19.8586 18.8636C18.8108 19.9113 17.5402 20.6759 16.2488 21.0355Z" fill="url(#paint12_linear_216_5921)"/>
<path d="M16.2488 21.0364L15.4771 21.2513C14.909 21.4095 14.5123 21.0128 14.6705 20.4448L14.8855 19.673C15.2452 18.3817 16.0097 17.111 17.0574 16.0632L17.4498 15.6709L19.0338 16.6274L20.251 18.4721L19.8586 18.8644C18.8108 19.9122 17.5402 20.6767 16.2488 21.0364Z" fill="url(#paint13_linear_216_5921)"/>
<path d="M30.2727 7.43036L28.491 5.64865C28.2095 5.36712 27.7531 5.36712 27.4715 5.64865L17.4498 15.6704L20.251 18.4716L30.2727 8.44985C30.5543 8.16837 30.5543 7.7119 30.2727 7.43036Z" fill="url(#paint14_linear_216_5921)"/>
<path d="M30.3493 7.50653L29.3819 6.53906L22.9838 12.9372L24.3844 14.3378L30.1826 8.53956C30.5139 8.20827 30.5885 7.74578 30.3493 7.50653Z" fill="url(#paint15_linear_216_5921)"/>
<path d="M29.0394 5.77183L22.9837 11.8275C22.6773 12.1339 22.6773 12.6307 22.9837 12.9371C23.2902 13.2436 23.787 13.2436 24.0934 12.9371L30.149 6.88147C30.4555 6.57503 30.4555 6.07821 30.149 5.77183C29.8427 5.46538 29.3458 5.46538 29.0394 5.77183Z" fill="url(#paint16_linear_216_5921)"/>
</g>
<defs>
<linearGradient id="paint0_linear_216_5921" x1="-1.28533" y1="1.17671" x2="29.034" y2="31.496" gradientUnits="userSpaceOnUse">
<stop stop-color="#EEF4FF"/>
<stop offset="1" stop-color="#CFE7FD"/>
</linearGradient>
<linearGradient id="paint1_linear_216_5921" x1="26.7044" y1="21.0772" x2="21.7318" y2="16.1046" gradientUnits="userSpaceOnUse">
<stop stop-color="#8AAADC" stop-opacity="0"/>
<stop offset="1" stop-color="#8AAADC"/>
</linearGradient>
<linearGradient id="paint2_linear_216_5921" x1="13.371" y1="11.7657" x2="13.371" y2="7.80834" gradientUnits="userSpaceOnUse">
<stop stop-color="#8AAADC" stop-opacity="0"/>
<stop offset="1" stop-color="#8AAADC"/>
</linearGradient>
<linearGradient id="paint3_linear_216_5921" x1="3.27942" y1="12.2802" x2="22.3439" y2="12.2802" gradientUnits="userSpaceOnUse">
<stop stop-color="#5A5A5A"/>
<stop offset="1" stop-color="#464646"/>
</linearGradient>
<linearGradient id="paint4_linear_216_5921" x1="3.27942" y1="15.1619" x2="22.3439" y2="15.1619" gradientUnits="userSpaceOnUse">
<stop stop-color="#5A5A5A"/>
<stop offset="1" stop-color="#464646"/>
</linearGradient>
<linearGradient id="paint5_linear_216_5921" x1="3.27942" y1="18.0438" x2="13.7019" y2="18.0438" gradientUnits="userSpaceOnUse">
<stop stop-color="#5A5A5A"/>
<stop offset="1" stop-color="#464646"/>
</linearGradient>
<linearGradient id="paint6_linear_216_5921" x1="13.371" y1="23.3603" x2="13.371" y2="31.268" gradientUnits="userSpaceOnUse">
<stop stop-color="#8AAADC" stop-opacity="0"/>
<stop offset="1" stop-color="#8AAADC"/>
</linearGradient>
<linearGradient id="paint7_linear_216_5921" x1="15.8281" y1="24.3818" x2="15.8281" y2="30.4839" gradientUnits="userSpaceOnUse">
<stop stop-color="#EEF4FF"/>
<stop offset="1" stop-color="#CFE7FD"/>
</linearGradient>
<linearGradient id="paint8_linear_216_5921" x1="15.8281" y1="27.2638" x2="15.8281" y2="31.6005" gradientUnits="userSpaceOnUse">
<stop stop-color="#8AAADC" stop-opacity="0"/>
<stop offset="1" stop-color="#8AAADC"/>
</linearGradient>
<linearGradient id="paint9_linear_216_5921" x1="13.371" y1="2.04008" x2="13.371" y2="8.44008" gradientUnits="userSpaceOnUse">
<stop stop-color="#F7E07D"/>
<stop offset="1" stop-color="#E69642"/>
</linearGradient>
<linearGradient id="paint10_linear_216_5921" x1="29.3305" y1="6.22632" x2="30.2564" y2="7.15222" gradientUnits="userSpaceOnUse">
<stop stop-color="#F7E07D"/>
<stop offset="1" stop-color="#E69642"/>
</linearGradient>
<linearGradient id="paint11_linear_216_5921" x1="30.2693" y1="8.55523" x2="28.6692" y2="6.95523" gradientUnits="userSpaceOnUse">
<stop stop-color="#D52C1C" stop-opacity="0"/>
<stop offset="0.28" stop-color="#D12C1E" stop-opacity="0.28"/>
<stop offset="0.5735" stop-color="#C42C23" stop-opacity="0.574"/>
<stop offset="0.8721" stop-color="#AF2B2C" stop-opacity="0.872"/>
<stop offset="1" stop-color="#A42B31"/>
</linearGradient>
<linearGradient id="paint12_linear_216_5921" x1="20.5177" y1="12.5318" x2="23.3185" y2="15.3326" gradientUnits="userSpaceOnUse">
<stop stop-color="#EEF4FF"/>
<stop offset="1" stop-color="#CFE7FD"/>
</linearGradient>
<linearGradient id="paint13_linear_216_5921" x1="15.535" y1="17.5153" x2="18.3358" y2="20.316" gradientUnits="userSpaceOnUse">
<stop stop-color="#8AAADC" stop-opacity="0"/>
<stop offset="1" stop-color="#8AAADC"/>
</linearGradient>
<linearGradient id="paint14_linear_216_5921" x1="22.7227" y1="10.3271" x2="25.5235" y2="13.1279" gradientUnits="userSpaceOnUse">
<stop stop-color="#DC4955"/>
<stop offset="1" stop-color="#C4237C"/>
</linearGradient>
<linearGradient id="paint15_linear_216_5921" x1="28.2404" y1="11.7943" x2="26.8443" y2="10.3982" gradientUnits="userSpaceOnUse">
<stop stop-color="#8A1958" stop-opacity="0"/>
<stop offset="1" stop-color="#8A1958"/>
</linearGradient>
<linearGradient id="paint16_linear_216_5921" x1="26.023" y1="8.81107" x2="26.8411" y2="9.62921" gradientUnits="userSpaceOnUse">
<stop stop-color="#EEF4FF"/>
<stop offset="1" stop-color="#CFE7FD"/>
</linearGradient>
<clipPath id="clip0_216_5921">
<rect width="32" height="32" fill="white"/>
</clipPath>
</defs>
</svg>
