<svg width="32" height="32" viewBox="0 0 32 32" fill="none" xmlns="http://www.w3.org/2000/svg">
<g clip-path="url(#clip0_216_5973)">
<path d="M19.5816 0H1.06717C0.477804 0 0 0.477804 0 1.06717V26.8858C0 27.7905 0.733365 28.5239 1.63802 28.5239H16.2312C18.6709 28.5239 20.6488 26.546 20.6488 24.1062V1.06717C20.6487 0.477804 20.171 0 19.5816 0Z" fill="url(#paint0_linear_216_5973)"/>
<path d="M0 16.5332V26.8854C0 27.7901 0.733365 28.5234 1.63802 28.5234H16.2312C18.6709 28.5234 20.6488 26.5456 20.6488 24.1058V16.5332H0Z" fill="url(#paint1_linear_216_5973)"/>
<path d="M19.6569 32.0004H5.06381C4.15915 32.0004 3.42578 31.267 3.42578 30.3623V4.54373C3.42578 3.95437 3.90359 3.47656 4.49295 3.47656H23.0073C23.5967 3.47656 24.0745 3.95437 24.0745 4.54373V27.5827C24.0746 30.0225 22.0967 32.0004 19.6569 32.0004Z" fill="url(#paint2_linear_216_5973)"/>
<path d="M20.6729 18.5068H6.82729C6.30864 18.5068 5.88818 18.0864 5.88818 17.5677V6.81508C5.88818 6.29643 6.30864 5.87598 6.82729 5.87598H20.6729C21.1916 5.87598 21.612 6.29643 21.612 6.81508V17.5677C21.612 18.0864 21.1915 18.5068 20.6729 18.5068Z" fill="white"/>
<path d="M20.6729 23.8024H6.82729C6.30864 23.8024 5.88818 23.382 5.88818 22.8633V21.3727C5.88818 20.854 6.30864 20.4336 6.82729 20.4336H20.6729C21.1916 20.4336 21.612 20.854 21.612 21.3727V22.8633C21.612 23.382 21.1915 23.8024 20.6729 23.8024Z" fill="white"/>
<path d="M12.6953 19.2833L23.3762 29.9642C23.8174 29.2767 24.0743 28.4596 24.0743 27.582V7.9043L12.6953 19.2833Z" fill="url(#paint3_linear_216_5973)"/>
<path d="M20.673 23.8024H17.7096C17.191 23.8024 16.7705 23.382 16.7705 22.8633V21.3727C16.7705 20.854 17.191 20.4336 17.7096 20.4336H20.673C21.1917 20.4336 21.6121 20.854 21.6121 21.3727V22.8633C21.6121 23.382 21.1917 23.8024 20.673 23.8024Z" fill="url(#paint4_linear_216_5973)"/>
<path d="M20.673 23.8024H17.7096C17.191 23.8024 16.7705 23.382 16.7705 22.8633V21.3727C16.7705 20.854 17.191 20.4336 17.7096 20.4336H20.673C21.1917 20.4336 21.6121 20.854 21.6121 21.3727V22.8633C21.6121 23.382 21.1917 23.8024 20.673 23.8024Z" fill="url(#paint5_linear_216_5973)"/>
<path d="M3.42578 24.3887V30.3616C3.42578 31.2662 4.15915 31.9996 5.06381 31.9996H19.6569C22.0967 31.9996 24.0746 30.0217 24.0746 27.582V24.3887H3.42578Z" fill="url(#paint6_linear_216_5973)"/>
<path d="M6.70174 26.7967V30.3617C6.70174 31.2664 5.96838 31.9997 5.06372 31.9997H22.9328C25.3726 31.9997 27.3505 30.0219 27.3505 27.5821V26.7967C27.3505 26.2073 26.8727 25.7295 26.2833 25.7295H7.76891C7.17949 25.7295 6.70174 26.2073 6.70174 26.7967Z" fill="url(#paint7_linear_216_5973)"/>
<path d="M6.70174 26.7967V30.3617C6.70174 31.2664 5.96838 31.9997 5.06372 31.9997H22.9328C25.3726 31.9997 27.3505 30.0219 27.3505 27.5821V26.7967C27.3505 26.2073 26.8727 25.7295 26.2833 25.7295H7.76891C7.17949 25.7295 6.70174 26.2073 6.70174 26.7967Z" fill="url(#paint8_linear_216_5973)"/>
<path d="M14.1097 19.3503L24.3725 10.5561L21.4444 7.62793L12.6502 17.8908C11.8187 18.8611 13.1393 20.1818 14.1097 19.3503Z" fill="url(#paint9_linear_216_5973)"/>
<path d="M16.906 15.094C14.2489 12.4369 14.4777 8.72864 16.906 7.14489L22.297 3.62891L28.3711 9.70307L24.8552 15.094C23.2714 17.5222 19.5632 17.7511 16.906 15.094Z" fill="url(#paint10_linear_216_5973)"/>
<path d="M16.906 15.094C14.2489 12.4369 14.4777 8.72864 16.906 7.14489L22.297 3.62891L28.3711 9.70307L24.8552 15.094C23.2714 17.5222 19.5632 17.7511 16.906 15.094Z" fill="url(#paint11_linear_216_5973)"/>
<path d="M24.8547 14.2904C28.8009 14.2904 31.9999 11.0914 31.9999 7.14522C31.9999 3.19903 28.8009 0 24.8547 0C20.9085 0 17.7095 3.19903 17.7095 7.14522C17.7095 11.0914 20.9085 14.2904 24.8547 14.2904Z" fill="url(#paint12_linear_216_5973)"/>
<path d="M24.8547 14.2904C28.8009 14.2904 31.9999 11.0914 31.9999 7.14522C31.9999 3.19903 28.8009 0 24.8547 0C20.9085 0 17.7095 3.19903 17.7095 7.14522C17.7095 11.0914 20.9085 14.2904 24.8547 14.2904Z" fill="url(#paint13_linear_216_5973)"/>
</g>
<defs>
<linearGradient id="paint0_linear_216_5973" x1="-1.12395" y1="2.6464" x2="11.7329" y2="15.5032" gradientUnits="userSpaceOnUse">
<stop stop-color="#DC4955"/>
<stop offset="1" stop-color="#C4237C"/>
</linearGradient>
<linearGradient id="paint1_linear_216_5973" x1="10.3244" y1="18.0239" x2="10.3244" y2="27.165" gradientUnits="userSpaceOnUse">
<stop stop-color="#8A1958" stop-opacity="0"/>
<stop offset="1" stop-color="#8A1958"/>
</linearGradient>
<linearGradient id="paint2_linear_216_5973" x1="0.947475" y1="4.76855" x2="27.3227" y2="31.1438" gradientUnits="userSpaceOnUse">
<stop stop-color="#EEF4FF"/>
<stop offset="1" stop-color="#CFE7FD"/>
</linearGradient>
<linearGradient id="paint3_linear_216_5973" x1="24.2717" y1="22.5973" x2="18.9384" y2="14.4404" gradientUnits="userSpaceOnUse">
<stop stop-color="#8AAADC" stop-opacity="0"/>
<stop offset="1" stop-color="#8AAADC"/>
</linearGradient>
<linearGradient id="paint4_linear_216_5973" x1="17.7576" y1="20.6843" x2="20.1135" y2="23.0402" gradientUnits="userSpaceOnUse">
<stop stop-color="#DC4955"/>
<stop offset="1" stop-color="#C4237C"/>
</linearGradient>
<linearGradient id="paint5_linear_216_5973" x1="20.9158" y1="23.8425" x2="17.0869" y2="20.0136" gradientUnits="userSpaceOnUse">
<stop stop-color="#8A1958" stop-opacity="0"/>
<stop offset="1" stop-color="#8A1958"/>
</linearGradient>
<linearGradient id="paint6_linear_216_5973" x1="13.7502" y1="24.7079" x2="13.7502" y2="32.6157" gradientUnits="userSpaceOnUse">
<stop stop-color="#8AAADC" stop-opacity="0"/>
<stop offset="1" stop-color="#8AAADC"/>
</linearGradient>
<linearGradient id="paint7_linear_216_5973" x1="16.2071" y1="25.7295" x2="16.2071" y2="31.8316" gradientUnits="userSpaceOnUse">
<stop stop-color="#EEF4FF"/>
<stop offset="1" stop-color="#CFE7FD"/>
</linearGradient>
<linearGradient id="paint8_linear_216_5973" x1="16.2071" y1="28.6115" x2="16.2071" y2="32.9482" gradientUnits="userSpaceOnUse">
<stop stop-color="#8AAADC" stop-opacity="0"/>
<stop offset="1" stop-color="#8AAADC"/>
</linearGradient>
<linearGradient id="paint9_linear_216_5973" x1="17.2866" y1="13.6743" x2="18.6885" y2="15.0762" gradientUnits="userSpaceOnUse">
<stop stop-color="#5A5A5A"/>
<stop offset="1" stop-color="#464646"/>
</linearGradient>
<linearGradient id="paint10_linear_216_5973" x1="16.0316" y1="5.79154" x2="24.563" y2="14.3229" gradientUnits="userSpaceOnUse">
<stop stop-color="#DC4955"/>
<stop offset="1" stop-color="#C4237C"/>
</linearGradient>
<linearGradient id="paint11_linear_216_5973" x1="15.8873" y1="10.3155" x2="21.926" y2="10.3155" gradientUnits="userSpaceOnUse">
<stop stop-color="#8A1958" stop-opacity="0"/>
<stop offset="1" stop-color="#8A1958"/>
</linearGradient>
<linearGradient id="paint12_linear_216_5973" x1="20.62" y1="2.91056" x2="28.9928" y2="11.2833" gradientUnits="userSpaceOnUse">
<stop stop-color="#DC4955"/>
<stop offset="1" stop-color="#C4237C"/>
</linearGradient>
<linearGradient id="paint13_linear_216_5973" x1="22.9408" y1="5.23144" x2="30.2662" y2="12.5567" gradientUnits="userSpaceOnUse">
<stop stop-color="#8A1958" stop-opacity="0"/>
<stop offset="1" stop-color="#8A1958"/>
</linearGradient>
<clipPath id="clip0_216_5973">
<rect width="32" height="32" fill="white"/>
</clipPath>
</defs>
</svg>
